<svg xmlns="http://www.w3.org/2000/svg" xmlns:xlink="http://www.w3.org/1999/xlink" width="205.587" height="191.044" viewBox="0 0 205.587 191.044">
  <defs>
    <clipPath id="clip-path">
      <rect id="Rectangle_5258" data-name="Rectangle 5258" width="205.587" height="191.044" fill="none" stroke="#fff" stroke-width="1"/>
    </clipPath>
  </defs>
  <g id="Message_delivered_mobile" data-name="Message delivered mobile" transform="translate(0 0)">
    <g id="Group_8600" data-name="Group 8600" transform="translate(0 0)" clip-path="url(#clip-path)">
      <path id="Path_11758" data-name="Path 11758" d="M52.01,68.12a1.25,1.25,0,0,1-1.25-1.25V35.7H20.841V66.87a1.25,1.25,0,0,1-2.5,0V34.451a1.25,1.25,0,0,1,1.25-1.25H52.01a1.25,1.25,0,0,1,1.25,1.25V66.87A1.25,1.25,0,0,1,52.01,68.12Z" transform="translate(40.989 72.078)" fill="#f97130"/>
      <path id="Path_11759" data-name="Path 11759" d="M68.936,68.12a1.25,1.25,0,0,1-1.25-1.25V35.7H37.767V66.87a1.25,1.25,0,0,1-2.5,0V34.451a1.25,1.25,0,0,1,1.25-1.25H68.936a1.25,1.25,0,0,1,1.25,1.25V66.87A1.25,1.25,0,0,1,68.936,68.12Z" transform="translate(76.402 72.078)" fill="#f97130"/>
      <path id="Rectangle_5257" data-name="Rectangle 5257" d="M0-1.25H32.419A1.25,1.25,0,0,1,33.669,0V32.419a1.25,1.25,0,0,1-1.25,1.25H0a1.25,1.25,0,0,1-1.25-1.25V0A1.25,1.25,0,0,1,0-1.25Zm31.169,2.5H1.25V31.169H31.169Z" transform="translate(86.576 74.112)" fill="#f97130"/>
      <path id="Path_11754" data-name="Path 11754" d="M37.461,81.828H20.646a7.113,7.113,0,0,1-7.1-7.107V50.951a1.25,1.25,0,0,1,2.5,0v23.77a4.61,4.61,0,0,0,4.6,4.607H37.461a4.612,4.612,0,0,0,4.607-4.607V50.951a1.25,1.25,0,0,1,2.5,0v23.77A7.115,7.115,0,0,1,37.461,81.828Z" transform="translate(30.948 106.6)" fill="#fff"/>
      <path id="Path_11755" data-name="Path 11755" d="M143.819,64.788H11.914a1.25,1.25,0,0,1-1.25-1.25v-18.6a1.25,1.25,0,0,1,2.5,0V62.288H142.569V44.935a1.25,1.25,0,0,1,2.5,0v18.6A1.25,1.25,0,0,1,143.819,64.788Z" transform="translate(24.927 94.013)" fill="#fff"/>
      <path id="Path_11756" data-name="Path 11756" d="M11.914,5.36h131.9a1.25,1.25,0,0,1,1.25,1.25V125.12a1.25,1.25,0,0,1-1.25,1.25H11.914a1.25,1.25,0,0,1-1.25-1.25V6.61A1.25,1.25,0,0,1,11.914,5.36Zm130.652,2.5H13.164V123.87h129.4Z" transform="translate(24.928 13.83)" fill="#fff"/>
      <path id="Path_11757" data-name="Path 11757" d="M65.14,81.828H48.325a7.115,7.115,0,0,1-7.107-7.107V50.951a1.25,1.25,0,0,1,2.5,0v23.77a4.612,4.612,0,0,0,4.607,4.607H65.14a4.61,4.61,0,0,0,4.6-4.607V50.951a1.25,1.25,0,0,1,2.5,0v23.77A7.113,7.113,0,0,1,65.14,81.828Z" transform="translate(88.853 106.6)" fill="#fff"/>
      <path id="Path_11760" data-name="Path 11760" d="M34.225,137.582a1.244,1.244,0,0,1-.56-.133L.689,120.874A1.25,1.25,0,0,1,0,119.757V1.25A1.25,1.25,0,0,1,1.811.134L34.787,16.708a1.25,1.25,0,1,1-1.123,2.234L2.5,3.278V118.986l32.287,16.228a1.25,1.25,0,0,1-.562,2.367Z" transform="translate(2.615 2.615)" fill="#fff"/>
      <path id="Path_11761" data-name="Path 11761" d="M54.572,137.582a1.25,1.25,0,0,1-.562-2.367L86.3,118.986V3.278L55.132,18.942a1.25,1.25,0,1,1-1.123-2.234L86.985.134A1.25,1.25,0,0,1,88.8,1.25V119.757a1.25,1.25,0,0,1-.689,1.117L55.132,137.448A1.245,1.245,0,0,1,54.572,137.582Z" transform="translate(114.175 2.615)" fill="#fff"/>
    </g>
  </g>
</svg>
